<svg xmlns="http://www.w3.org/2000/svg" viewBox="0 0 110 110"><defs><style>.cls-1{fill:#007cb6;}.cls-2,.cls-3{fill:none;stroke-linecap:round;stroke-width:2px;}.cls-2{stroke:#000;stroke-miterlimit:10;}.cls-3{stroke:#007cb6;stroke-linejoin:round;}.cls-4{fill:#fff;}</style></defs><title>business-prime-blue</title><g id="Row_2" data-name="Row 2"><rect class="cls-1" x="16.46" y="46.08" width="77.08" height="48.37"/><line class="cls-2" x1="5.6" y1="18.98" x2="16.46" y2="42.76"/><line class="cls-2" x1="104.4" y1="18.98" x2="93.54" y2="42.76"/><line class="cls-3" x1="27.55" y1="27.55" x2="27.55" y2="38.99"/><line class="cls-3" x1="21.84" y1="33.27" x2="33.27" y2="33.27"/><line class="cls-3" x1="32.93" y1="15.55" x2="32.93" y2="23.32"/><line class="cls-3" x1="29.16" y1="19.44" x2="36.82" y2="19.44"/><line class="cls-3" x1="42.99" y1="23.55" x2="42.99" y2="31.33"/><line class="cls-3" x1="39.1" y1="27.44" x2="46.88" y2="27.44"/><path class="cls-4" d="M54.46,74.62a39.45,39.45,0,0,1-26.07-9.77l-.1-.09c-.28-.27-.73-.53-.38-1s.69-.1,1,.08a50.46,50.46,0,0,0,11.33,4.75,52.3,52.3,0,0,0,34.51-1.78l.52-.2c.48-.2,1-.22,1.24.27s0,.88-.43,1.18a26.64,26.64,0,0,1-3.34,2.08A40.47,40.47,0,0,1,54.46,74.62Z"/><path class="cls-4" d="M74.91,64.68c-.82.08-1.8.19-2.78.27-.28,0-.68.18-.81-.2s.26-.56.53-.73a9.63,9.63,0,0,1,4.45-1.41,11.85,11.85,0,0,1,4,.24,1.22,1.22,0,0,1,1.08,1.33A11.32,11.32,0,0,1,78,72.1c-.22.21-.5.46-.8.25s-.08-.56,0-.82A28.81,28.81,0,0,0,78.69,67c.35-1.73,0-2.23-1.79-2.32C76.29,64.65,75.68,64.68,74.91,64.68Z"/></g></svg>